<mxfile host="app.diagrams.net" modified="2023-05-15T23:35:14.769Z" agent="Mozilla/5.0 (Windows NT 10.0; Win64; x64) AppleWebKit/537.36 (KHTML, like Gecko) Chrome/113.0.0.0 Safari/537.36" etag="ddSfdBD10s3TwtXy_RJ8" version="21.3.2" type="device">
  <diagram id="mHkPpL4sDXYTSZATMC4n" name="Página-1">
    <mxGraphModel dx="874" dy="594" grid="0" gridSize="10" guides="1" tooltips="1" connect="1" arrows="1" fold="1" page="1" pageScale="1" pageWidth="827" pageHeight="1169" math="0" shadow="0">
      <root>
        <mxCell id="0" />
        <mxCell id="1" parent="0" />
        <mxCell id="HXdkA08mGtH0IpMlDky3-31" style="edgeStyle=orthogonalEdgeStyle;rounded=0;orthogonalLoop=1;jettySize=auto;html=1;entryX=-0.033;entryY=0.638;entryDx=0;entryDy=0;entryPerimeter=0;labelBackgroundColor=none;strokeColor=#FF6392;fontColor=default;" parent="1" source="HXdkA08mGtH0IpMlDky3-2" target="HXdkA08mGtH0IpMlDky3-8" edge="1">
          <mxGeometry relative="1" as="geometry" />
        </mxCell>
        <mxCell id="HXdkA08mGtH0IpMlDky3-2" value="Cliente" style="shape=umlActor;verticalLabelPosition=bottom;verticalAlign=top;html=1;outlineConnect=0;labelBackgroundColor=none;fillColor=#FFE45E;strokeColor=#FF6392;fontColor=#5AA9E6;" parent="1" vertex="1">
          <mxGeometry x="30" y="290" width="30" height="60" as="geometry" />
        </mxCell>
        <mxCell id="HXdkA08mGtH0IpMlDky3-5" value="Atendente" style="shape=umlActor;verticalLabelPosition=bottom;verticalAlign=top;html=1;outlineConnect=0;labelBackgroundColor=none;fillColor=#FFE45E;strokeColor=#FF6392;fontColor=#5AA9E6;" parent="1" vertex="1">
          <mxGeometry x="680" y="140" width="30" height="60" as="geometry" />
        </mxCell>
        <mxCell id="HXdkA08mGtH0IpMlDky3-6" value="Controlar Orçamentos e Pedidos" style="ellipse;whiteSpace=wrap;html=1;labelBackgroundColor=none;fillColor=#FFE45E;strokeColor=#FF6392;fontColor=#5AA9E6;" parent="1" vertex="1">
          <mxGeometry x="340" y="50" width="120" height="80" as="geometry" />
        </mxCell>
        <mxCell id="HXdkA08mGtH0IpMlDky3-7" value="Gerenciar Faturamento" style="ellipse;whiteSpace=wrap;html=1;labelBackgroundColor=none;fillColor=#FFE45E;strokeColor=#FF6392;fontColor=#5AA9E6;" parent="1" vertex="1">
          <mxGeometry x="340" y="200" width="120" height="80" as="geometry" />
        </mxCell>
        <mxCell id="HXdkA08mGtH0IpMlDky3-8" value="Locar&amp;nbsp;" style="ellipse;whiteSpace=wrap;html=1;labelBackgroundColor=none;fillColor=#FFE45E;strokeColor=#FF6392;fontColor=#5AA9E6;" parent="1" vertex="1">
          <mxGeometry x="340" y="350" width="120" height="80" as="geometry" />
        </mxCell>
        <mxCell id="HXdkA08mGtH0IpMlDky3-39" style="edgeStyle=orthogonalEdgeStyle;rounded=0;orthogonalLoop=1;jettySize=auto;html=1;labelBackgroundColor=none;strokeColor=#FF6392;fontColor=default;" parent="1" source="HXdkA08mGtH0IpMlDky3-9" edge="1">
          <mxGeometry relative="1" as="geometry">
            <mxPoint x="700" y="230" as="targetPoint" />
          </mxGeometry>
        </mxCell>
        <mxCell id="HXdkA08mGtH0IpMlDky3-9" value="Devolver Locação" style="ellipse;whiteSpace=wrap;html=1;labelBackgroundColor=none;fillColor=#FFE45E;strokeColor=#FF6392;fontColor=#5AA9E6;" parent="1" vertex="1">
          <mxGeometry x="371" y="505" width="120" height="80" as="geometry" />
        </mxCell>
        <mxCell id="HXdkA08mGtH0IpMlDky3-21" style="edgeStyle=orthogonalEdgeStyle;rounded=0;orthogonalLoop=1;jettySize=auto;html=1;entryX=1;entryY=0.625;entryDx=0;entryDy=0;entryPerimeter=0;labelBackgroundColor=none;strokeColor=#FF6392;fontColor=default;" parent="1" source="HXdkA08mGtH0IpMlDky3-10" target="HXdkA08mGtH0IpMlDky3-7" edge="1">
          <mxGeometry relative="1" as="geometry" />
        </mxCell>
        <mxCell id="HXdkA08mGtH0IpMlDky3-10" value="Gerente Administrativo" style="shape=umlActor;verticalLabelPosition=bottom;verticalAlign=top;html=1;outlineConnect=0;labelBackgroundColor=none;fillColor=#FFE45E;strokeColor=#FF6392;fontColor=#5AA9E6;" parent="1" vertex="1">
          <mxGeometry x="590" y="270" width="30" height="60" as="geometry" />
        </mxCell>
        <mxCell id="HXdkA08mGtH0IpMlDky3-11" value="Gerente&amp;nbsp;&lt;br&gt;Geral" style="shape=umlActor;verticalLabelPosition=bottom;verticalAlign=top;html=1;outlineConnect=0;labelBackgroundColor=none;fillColor=#FFE45E;strokeColor=#FF6392;fontColor=#5AA9E6;" parent="1" vertex="1">
          <mxGeometry x="745" y="540" width="30" height="60" as="geometry" />
        </mxCell>
        <mxCell id="HXdkA08mGtH0IpMlDky3-16" value="" style="endArrow=classic;html=1;rounded=0;exitX=0;exitY=0.3333333333333333;exitDx=0;exitDy=0;exitPerimeter=0;entryX=1;entryY=0.5;entryDx=0;entryDy=0;labelBackgroundColor=none;strokeColor=#FF6392;fontColor=default;" parent="1" source="HXdkA08mGtH0IpMlDky3-5" target="HXdkA08mGtH0IpMlDky3-6" edge="1">
          <mxGeometry width="50" height="50" relative="1" as="geometry">
            <mxPoint x="390" y="240" as="sourcePoint" />
            <mxPoint x="440" y="190" as="targetPoint" />
            <Array as="points" />
          </mxGeometry>
        </mxCell>
        <mxCell id="HXdkA08mGtH0IpMlDky3-17" value="Registrar informações" style="ellipse;whiteSpace=wrap;html=1;labelBackgroundColor=none;fillColor=#FFE45E;strokeColor=#FF6392;fontColor=#5AA9E6;" parent="1" vertex="1">
          <mxGeometry x="80" y="20" width="110" height="40" as="geometry" />
        </mxCell>
        <mxCell id="HXdkA08mGtH0IpMlDky3-18" value="I&amp;lt;include&amp;gt;" style="endArrow=open;endSize=12;dashed=1;html=1;rounded=0;exitX=0;exitY=0.375;exitDx=0;exitDy=0;entryX=1;entryY=1;entryDx=0;entryDy=0;exitPerimeter=0;labelBackgroundColor=none;strokeColor=#FF6392;fontColor=default;" parent="1" source="HXdkA08mGtH0IpMlDky3-6" target="HXdkA08mGtH0IpMlDky3-17" edge="1">
          <mxGeometry x="-0.0984" y="5" width="160" relative="1" as="geometry">
            <mxPoint x="230" y="80" as="sourcePoint" />
            <mxPoint x="330" y="90" as="targetPoint" />
            <mxPoint as="offset" />
          </mxGeometry>
        </mxCell>
        <mxCell id="HXdkA08mGtH0IpMlDky3-19" value="&lt;font style=&quot;font-size: 11px;&quot;&gt;Imprimir Orçamento e Pedidos&lt;/font&gt;" style="ellipse;whiteSpace=wrap;html=1;labelBackgroundColor=none;fillColor=#FFE45E;strokeColor=#FF6392;fontColor=#5AA9E6;" parent="1" vertex="1">
          <mxGeometry x="60" y="90" width="120" height="50" as="geometry" />
        </mxCell>
        <mxCell id="HXdkA08mGtH0IpMlDky3-20" value="I&amp;lt;include&amp;gt;" style="endArrow=open;endSize=12;dashed=1;html=1;rounded=0;exitX=-0.017;exitY=0.6;exitDx=0;exitDy=0;entryX=0.982;entryY=0.24;entryDx=0;entryDy=0;entryPerimeter=0;exitPerimeter=0;labelBackgroundColor=none;strokeColor=#FF6392;fontColor=default;" parent="1" source="HXdkA08mGtH0IpMlDky3-6" target="HXdkA08mGtH0IpMlDky3-19" edge="1">
          <mxGeometry x="0.0007" width="160" relative="1" as="geometry">
            <mxPoint x="230" y="150" as="sourcePoint" />
            <mxPoint x="340" y="160" as="targetPoint" />
            <mxPoint as="offset" />
          </mxGeometry>
        </mxCell>
        <mxCell id="HXdkA08mGtH0IpMlDky3-27" value="&lt;font style=&quot;font-size: 11px;&quot;&gt;Imprimir Relatório faturamento Mensal/Categoria&lt;/font&gt;" style="ellipse;whiteSpace=wrap;html=1;labelBackgroundColor=none;fillColor=#FFE45E;strokeColor=#FF6392;fontColor=#5AA9E6;" parent="1" vertex="1">
          <mxGeometry x="100" y="200" width="120" height="50" as="geometry" />
        </mxCell>
        <mxCell id="HXdkA08mGtH0IpMlDky3-28" value="I&amp;lt;include&amp;gt;" style="endArrow=open;endSize=12;dashed=1;html=1;rounded=0;labelBackgroundColor=none;strokeColor=#FF6392;fontColor=default;" parent="1" target="HXdkA08mGtH0IpMlDky3-27" edge="1">
          <mxGeometry x="-0.0039" width="160" relative="1" as="geometry">
            <mxPoint x="338" y="235" as="sourcePoint" />
            <mxPoint x="353" y="177" as="targetPoint" />
            <mxPoint as="offset" />
          </mxGeometry>
        </mxCell>
        <mxCell id="HXdkA08mGtH0IpMlDky3-29" value="&lt;span style=&quot;font-size: 11px;&quot;&gt;Utilizar modelo contrato Locação&lt;/span&gt;" style="ellipse;whiteSpace=wrap;html=1;labelBackgroundColor=none;fillColor=#FFE45E;strokeColor=#FF6392;fontColor=#5AA9E6;" parent="1" vertex="1">
          <mxGeometry x="160" y="145" width="110" height="50" as="geometry" />
        </mxCell>
        <mxCell id="HXdkA08mGtH0IpMlDky3-30" value="I&amp;lt;include&amp;gt;" style="endArrow=open;endSize=12;dashed=1;html=1;rounded=0;exitX=0.083;exitY=0.875;exitDx=0;exitDy=0;exitPerimeter=0;entryX=1;entryY=0;entryDx=0;entryDy=0;labelBackgroundColor=none;strokeColor=#FF6392;fontColor=default;" parent="1" source="HXdkA08mGtH0IpMlDky3-6" target="HXdkA08mGtH0IpMlDky3-29" edge="1">
          <mxGeometry x="0.0063" width="160" relative="1" as="geometry">
            <mxPoint x="210" y="140" as="sourcePoint" />
            <mxPoint x="371" y="122" as="targetPoint" />
            <mxPoint as="offset" />
          </mxGeometry>
        </mxCell>
        <mxCell id="HXdkA08mGtH0IpMlDky3-33" value="&lt;font style=&quot;font-size: 11px;&quot;&gt;Criar regras Locação, devoluçao,controlar&amp;nbsp;&amp;nbsp;&lt;/font&gt;" style="ellipse;whiteSpace=wrap;html=1;labelBackgroundColor=none;fillColor=#FFE45E;strokeColor=#FF6392;fontColor=#5AA9E6;" parent="1" vertex="1">
          <mxGeometry x="710" y="440" width="110" height="50" as="geometry" />
        </mxCell>
        <mxCell id="HXdkA08mGtH0IpMlDky3-35" value="I&amp;lt;include&amp;gt;" style="endArrow=open;endSize=12;dashed=1;html=1;rounded=0;exitX=0.083;exitY=0.875;exitDx=0;exitDy=0;exitPerimeter=0;labelBackgroundColor=none;strokeColor=#FF6392;fontColor=default;" parent="1" edge="1">
          <mxGeometry x="-0.2" y="8" width="160" relative="1" as="geometry">
            <mxPoint x="756" y="490" as="sourcePoint" />
            <mxPoint x="760" y="530" as="targetPoint" />
            <mxPoint x="-1" as="offset" />
          </mxGeometry>
        </mxCell>
        <mxCell id="FuKeWUT9p_C-J7KXTtOi-2" value="" style="endArrow=classic;html=1;rounded=0;labelBackgroundColor=none;strokeColor=#FF6392;fontColor=default;" edge="1" parent="1">
          <mxGeometry width="50" height="50" relative="1" as="geometry">
            <mxPoint x="42" y="380" as="sourcePoint" />
            <mxPoint x="366" y="547" as="targetPoint" />
            <Array as="points">
              <mxPoint x="46" y="552" />
            </Array>
          </mxGeometry>
        </mxCell>
        <mxCell id="FuKeWUT9p_C-J7KXTtOi-4" value="" style="endArrow=classic;html=1;rounded=0;labelBackgroundColor=none;strokeColor=#FF6392;fontColor=default;" edge="1" parent="1">
          <mxGeometry width="50" height="50" relative="1" as="geometry">
            <mxPoint x="462" y="402" as="sourcePoint" />
            <mxPoint x="674" y="236" as="targetPoint" />
            <Array as="points">
              <mxPoint x="674" y="402" />
            </Array>
          </mxGeometry>
        </mxCell>
        <mxCell id="FuKeWUT9p_C-J7KXTtOi-5" value="" style="endArrow=classic;html=1;rounded=0;labelBackgroundColor=none;strokeColor=#FF6392;fontColor=default;" edge="1" parent="1">
          <mxGeometry width="50" height="50" relative="1" as="geometry">
            <mxPoint x="685" y="234" as="sourcePoint" />
            <mxPoint x="459" y="415" as="targetPoint" />
            <Array as="points">
              <mxPoint x="687" y="415" />
            </Array>
          </mxGeometry>
        </mxCell>
        <mxCell id="FuKeWUT9p_C-J7KXTtOi-6" value="" style="endArrow=classic;html=1;rounded=0;labelBackgroundColor=none;strokeColor=#FF6392;fontColor=default;" edge="1" parent="1">
          <mxGeometry width="50" height="50" relative="1" as="geometry">
            <mxPoint x="338" y="415" as="sourcePoint" />
            <mxPoint x="52" y="377" as="targetPoint" />
            <Array as="points">
              <mxPoint x="52" y="412" />
            </Array>
          </mxGeometry>
        </mxCell>
        <mxCell id="FuKeWUT9p_C-J7KXTtOi-7" value="Fazer orçamento" style="ellipse;whiteSpace=wrap;html=1;strokeColor=#FF6392;fontColor=#5AA9E6;fillColor=#FFE45E;" vertex="1" parent="1">
          <mxGeometry x="225" y="282" width="120" height="36" as="geometry" />
        </mxCell>
        <mxCell id="FuKeWUT9p_C-J7KXTtOi-8" value="Extends" style="endArrow=block;endSize=16;endFill=0;html=1;rounded=0;strokeColor=#FF6392;fontColor=#5AA9E6;fillColor=#FFE45E;entryX=0.183;entryY=0.05;entryDx=0;entryDy=0;entryPerimeter=0;" edge="1" parent="1" target="HXdkA08mGtH0IpMlDky3-8">
          <mxGeometry width="160" relative="1" as="geometry">
            <mxPoint x="332" y="316" as="sourcePoint" />
            <mxPoint x="492" y="316" as="targetPoint" />
          </mxGeometry>
        </mxCell>
        <mxCell id="FuKeWUT9p_C-J7KXTtOi-9" value="Efetivar Pedido" style="ellipse;whiteSpace=wrap;html=1;strokeColor=#FF6392;fontColor=#5AA9E6;fillColor=#FFE45E;" vertex="1" parent="1">
          <mxGeometry x="198" y="451" width="116" height="30" as="geometry" />
        </mxCell>
        <mxCell id="FuKeWUT9p_C-J7KXTtOi-10" value="Extends" style="endArrow=block;endSize=16;endFill=0;html=1;rounded=0;strokeColor=#FF6392;fontColor=#5AA9E6;fillColor=#FFE45E;" edge="1" parent="1" source="FuKeWUT9p_C-J7KXTtOi-9">
          <mxGeometry width="160" relative="1" as="geometry">
            <mxPoint x="332" y="463" as="sourcePoint" />
            <mxPoint x="377" y="431" as="targetPoint" />
          </mxGeometry>
        </mxCell>
      </root>
    </mxGraphModel>
  </diagram>
</mxfile>
